{
    "asset" : {
        "generator" : "Khronos glTF Blender I/O v1.0.5",
        "version" : "2.0"
    },
    "scene" : 0,
    "scenes" : [
        {
            "name" : "Scene",
            "nodes" : [
                1
            ]
        }
    ],
    "nodes" : [
        {
            "mesh" : 0,
            "name" : "g_int_ground"
        },
        {
            "children" : [
                0
            ],
            "name" : "rp_warehouseinterior"
        }
    ],
    "materials" : [
        {
            "name" : "mat_conc_dry_crack_vtx",
            "pbrMetallicRoughness" : {}
        },
        {
            "name" : "mat_warehousewall",
            "pbrMetallicRoughness" : {}
        },
        {
            "name" : "mat_ceiling",
            "pbrMetallicRoughness" : {}
        }
    ],
    "meshes" : [
        {
            "name" : "g_int_ground",
            "primitives" : [
                {
                    "attributes" : {
                        "POSITION" : 0,
                        "NORMAL" : 1,
                        "TEXCOORD_0" : 2,
                        "COLOR_0" : 3
                    },
                    "indices" : 4,
                    "material" : 0
                },
                {
                    "attributes" : {
                        "POSITION" : 5,
                        "NORMAL" : 6,
                        "TEXCOORD_0" : 7,
                        "COLOR_0" : 8
                    },
                    "indices" : 9,
                    "material" : 1
                },
                {
                    "attributes" : {
                        "POSITION" : 10,
                        "NORMAL" : 11,
                        "TEXCOORD_0" : 12,
                        "COLOR_0" : 13
                    },
                    "indices" : 14,
                    "material" : 2
                }
            ]
        }
    ],
    "accessors" : [
        {
            "bufferView" : 0,
            "componentType" : 5126,
            "count" : 557,
            "max" : [
                32,
                96,
                8
            ],
            "min" : [
                -48,
                32,
                0
            ],
            "type" : "VEC3"
        },
        {
            "bufferView" : 1,
            "componentType" : 5126,
            "count" : 557,
            "type" : "VEC3"
        },
        {
            "bufferView" : 2,
            "componentType" : 5126,
            "count" : 557,
            "type" : "VEC2"
        },
        {
            "bufferView" : 3,
            "componentType" : 5126,
            "count" : 557,
            "type" : "VEC4"
        },
        {
            "bufferView" : 4,
            "componentType" : 5123,
            "count" : 2901,
            "type" : "SCALAR"
        },
        {
            "bufferView" : 5,
            "componentType" : 5126,
            "count" : 1805,
            "max" : [
                31.5,
                80,
                18
            ],
            "min" : [
                -40,
                32,
                0
            ],
            "type" : "VEC3"
        },
        {
            "bufferView" : 6,
            "componentType" : 5126,
            "count" : 1805,
            "type" : "VEC3"
        },
        {
            "bufferView" : 7,
            "componentType" : 5126,
            "count" : 1805,
            "type" : "VEC2"
        },
        {
            "bufferView" : 8,
            "componentType" : 5126,
            "count" : 1805,
            "type" : "VEC4"
        },
        {
            "bufferView" : 9,
            "componentType" : 5123,
            "count" : 2640,
            "type" : "SCALAR"
        },
        {
            "bufferView" : 10,
            "componentType" : 5126,
            "count" : 164,
            "max" : [
                8,
                80.00000762939453,
                12
            ],
            "min" : [
                -48,
                32.25,
                4
            ],
            "type" : "VEC3"
        },
        {
            "bufferView" : 11,
            "componentType" : 5126,
            "count" : 164,
            "type" : "VEC3"
        },
        {
            "bufferView" : 12,
            "componentType" : 5126,
            "count" : 164,
            "type" : "VEC2"
        },
        {
            "bufferView" : 13,
            "componentType" : 5126,
            "count" : 164,
            "type" : "VEC4"
        },
        {
            "bufferView" : 14,
            "componentType" : 5123,
            "count" : 552,
            "type" : "SCALAR"
        }
    ],
    "bufferViews" : [
        {
            "buffer" : 0,
            "byteLength" : 6684,
            "byteOffset" : 0
        },
        {
            "buffer" : 0,
            "byteLength" : 6684,
            "byteOffset" : 6684
        },
        {
            "buffer" : 0,
            "byteLength" : 4456,
            "byteOffset" : 13368
        },
        {
            "buffer" : 0,
            "byteLength" : 8912,
            "byteOffset" : 17824
        },
        {
            "buffer" : 0,
            "byteLength" : 5802,
            "byteOffset" : 26736
        },
        {
            "buffer" : 0,
            "byteLength" : 21660,
            "byteOffset" : 32540
        },
        {
            "buffer" : 0,
            "byteLength" : 21660,
            "byteOffset" : 54200
        },
        {
            "buffer" : 0,
            "byteLength" : 14440,
            "byteOffset" : 75860
        },
        {
            "buffer" : 0,
            "byteLength" : 28880,
            "byteOffset" : 90300
        },
        {
            "buffer" : 0,
            "byteLength" : 5280,
            "byteOffset" : 119180
        },
        {
            "buffer" : 0,
            "byteLength" : 1968,
            "byteOffset" : 124460
        },
        {
            "buffer" : 0,
            "byteLength" : 1968,
            "byteOffset" : 126428
        },
        {
            "buffer" : 0,
            "byteLength" : 1312,
            "byteOffset" : 128396
        },
        {
            "buffer" : 0,
            "byteLength" : 2624,
            "byteOffset" : 129708
        },
        {
            "buffer" : 0,
            "byteLength" : 1104,
            "byteOffset" : 132332
        }
    ],
    "buffers" : [
        {
            "byteLength" : 133436,
            "uri" : "data:application/octet-stream;base64,"
        }
    ]
}
