{
  "asset": {
    "copyright": "",
    "generator": "SharpGLTF 1.0.0-alpha0022",
    "version": "2.0"
  },
  "accessors": [
    {
      "bufferView": 0,
      "componentType": 5126,
      "count": 140,
      "max": [
        0.0651489868760109,
        0.08289067447185516,
        0.1341039389371872
      ],
      "min": [
        -0.06841368228197098,
        0.044986143708229065,
        0.10657402127981186
      ],
      "type": "VEC3"
    },
    {
      "bufferView": 1,
      "componentType": 5126,
      "count": 140,
      "max": [
        0.5409818291664124,
        0.3664042055606842,
        0.9759021401405334
      ],
      "min": [
        -0.5409818291664124,
        -0.3664042055606842,
        -0.9759021401405334
      ],
      "type": "VEC3"
    },
    {
      "bufferView": 2,
      "componentType": 5126,
      "count": 140,
      "max": [
        0.29156947135925293,
        0.44744056463241577
      ],
      "min": [
        0.26661837100982666,
        0.43600207567214966
      ],
      "type": "VEC2"
    },
    {
      "bufferView": 3,
      "componentType": 5123,
      "count": 576,
      "type": "SCALAR"
    },
    {
      "bufferView": 4,
      "componentType": 5126,
      "count": 66,
      "max": [
        0.07724086940288544,
        0.07212501764297485,
        0.18022434413433075
      ],
      "min": [
        -0.06164726987481117,
        -0.06835425645112991,
        -0.20488788187503815
      ],
      "type": "VEC3"
    },
    {
      "bufferView": 5,
      "componentType": 5123,
      "count": 384,
      "type": "SCALAR"
    },
    {
      "bufferView": 6,
      "componentType": 5126,
      "count": 66,
      "max": [
        0.09359585493803024,
        0.08714856952428818,
        0.16668306291103363
      ],
      "min": [
        -0.0892997533082962,
        -0.09395233541727066,
        -0.16566428542137146
      ],
      "type": "VEC3"
    },
    {
      "bufferView": 7,
      "componentType": 5123,
      "count": 384,
      "type": "SCALAR"
    },
    {
      "bufferView": 8,
      "componentType": 5126,
      "count": 66,
      "max": [
        0.0684807300567627,
        0.07768514007329941,
        0.180402472615242
      ],
      "min": [
        -0.06581243127584457,
        -0.059270672500133514,
        -0.1794678121805191
      ],
      "type": "VEC3"
    },
    {
      "bufferView": 9,
      "componentType": 5123,
      "count": 384,
      "type": "SCALAR"
    },
    {
      "bufferView": 10,
      "componentType": 5126,
      "count": 66,
      "max": [
        0.09234918653964996,
        0.09676750749349594,
        0.16566382348537445
      ],
      "min": [
        -0.0892239660024643,
        -0.0862717404961586,
        -0.16607560217380524
      ],
      "type": "VEC3"
    },
    {
      "bufferView": 11,
      "componentType": 5123,
      "count": 384,
      "type": "SCALAR"
    },
    {
      "bufferView": 12,
      "componentType": 5126,
      "count": 66,
      "max": [
        0.16724035143852234,
        0.5637693405151367,
        0.16724033653736115
      ],
      "min": [
        -0.16724030673503876,
        -0.48876938223838806,
        -0.16724033653736115
      ],
      "type": "VEC3"
    },
    {
      "bufferView": 13,
      "componentType": 5123,
      "count": 384,
      "type": "SCALAR"
    },
    {
      "bufferView": 14,
      "componentType": 5126,
      "count": 24,
      "max": [
        0.16582995653152466,
        0.39155760407447815,
        0.16582995653152466
      ],
      "min": [
        -0.16582995653152466,
        -0.39155760407447815,
        -0.16582995653152466
      ],
      "type": "VEC3"
    },
    {
      "bufferView": 15,
      "componentType": 5126,
      "count": 24,
      "max": [
        1,
        1,
        1
      ],
      "min": [
        -1,
        -1,
        -1
      ],
      "type": "VEC3"
    },
    {
      "bufferView": 16,
      "componentType": 5126,
      "count": 24,
      "max": [
        100,
        -99
      ],
      "min": [
        100,
        -99
      ],
      "type": "VEC2"
    },
    {
      "bufferView": 17,
      "componentType": 5123,
      "count": 36,
      "type": "SCALAR"
    },
    {
      "bufferView": 18,
      "componentType": 5126,
      "count": 66,
      "max": [
        0.07871484756469727,
        0.07871487736701965,
        0.24714350700378418
      ],
      "min": [
        -0.07871481776237488,
        -0.07871487736701965,
        -0.2666608691215515
      ],
      "type": "VEC3"
    },
    {
      "bufferView": 19,
      "componentType": 5123,
      "count": 384,
      "type": "SCALAR"
    },
    {
      "bufferView": 20,
      "componentType": 5126,
      "count": 66,
      "max": [
        0.10012862086296082,
        0.10012862831354141,
        0.2546171247959137
      ],
      "min": [
        -0.10012859106063843,
        -0.10012862831354141,
        -0.2546170949935913
      ],
      "type": "VEC3"
    },
    {
      "bufferView": 21,
      "componentType": 5123,
      "count": 384,
      "type": "SCALAR"
    },
    {
      "bufferView": 22,
      "componentType": 5126,
      "count": 66,
      "max": [
        0.07871483266353607,
        0.07871487736701965,
        0.24714350700378418
      ],
      "min": [
        -0.07871484756469727,
        -0.07871487736701965,
        -0.2666608989238739
      ],
      "type": "VEC3"
    },
    {
      "bufferView": 23,
      "componentType": 5123,
      "count": 384,
      "type": "SCALAR"
    },
    {
      "bufferView": 24,
      "componentType": 5126,
      "count": 66,
      "max": [
        0.10012859851121902,
        0.10012862831354141,
        0.2546171247959137
      ],
      "min": [
        -0.10012856870889664,
        -0.10012862831354141,
        -0.2546171247959137
      ],
      "type": "VEC3"
    },
    {
      "bufferView": 25,
      "componentType": 5123,
      "count": 384,
      "type": "SCALAR"
    },
    {
      "bufferView": 26,
      "componentType": 5126,
      "count": 173,
      "max": [
        0.38836508989334106,
        0.5186828970909119,
        1.7821537256240845
      ],
      "min": [
        -0.3831322491168976,
        -0.07608401030302048,
        0.08090081065893173
      ],
      "type": "VEC3"
    },
    {
      "bufferView": 27,
      "componentType": 5126,
      "count": 173,
      "max": [
        1,
        0,
        0,
        0
      ],
      "min": [
        1,
        0,
        0,
        0
      ],
      "type": "VEC4"
    },
    {
      "bufferView": 28,
      "componentType": 5123,
      "count": 173,
      "type": "VEC4"
    },
    {
      "bufferView": 29,
      "componentType": 5123,
      "count": 972,
      "type": "SCALAR"
    },
    {
      "bufferView": 30,
      "componentType": 5126,
      "count": 3401,
      "max": [
        0.4130876362323761,
        0.41267892718315125,
        1.645208716392517
      ],
      "min": [
        -0.4130876362323761,
        -0.13613593578338623,
        0.08049856126308441
      ],
      "type": "VEC3"
    },
    {
      "bufferView": 31,
      "componentType": 5126,
      "count": 3401,
      "max": [
        0.9998893737792969,
        0.9997673630714417,
        0.9990012049674988
      ],
      "min": [
        -0.9997623562812805,
        -0.9998742341995239,
        -0.9995960593223572
      ],
      "type": "VEC3"
    },
    {
      "bufferView": 32,
      "componentType": 5126,
      "count": 3401,
      "max": [
        0.9923397898674011,
        0.9913631677627563
      ],
      "min": [
        0.012357473373413086,
        0.006063103675842285
      ],
      "type": "VEC2"
    },
    {
      "bufferView": 33,
      "componentType": 5126,
      "count": 3401,
      "max": [
        1,
        0.5,
        0.2905896008014679,
        0
      ],
      "min": [
        0.4186864197254181,
        0,
        0,
        0
      ],
      "type": "VEC4"
    },
    {
      "bufferView": 34,
      "componentType": 5123,
      "count": 3401,
      "type": "VEC4"
    },
    {
      "bufferView": 35,
      "componentType": 5123,
      "count": 12939,
      "type": "SCALAR"
    },
    {
      "bufferView": 35,
      "byteOffset": 25878,
      "componentType": 5123,
      "count": 276,
      "type": "SCALAR"
    },
    {
      "bufferView": 35,
      "byteOffset": 26430,
      "componentType": 5123,
      "count": 504,
      "type": "SCALAR"
    },
    {
      "bufferView": 36,
      "componentType": 5126,
      "count": 681,
      "max": [
        0.40622732043266296,
        0.40790727734565735,
        1.6452083587646484
      ],
      "min": [
        -0.38958269357681274,
        -0.13613596558570862,
        0.08192788064479828
      ],
      "type": "VEC3"
    },
    {
      "bufferView": 37,
      "componentType": 5126,
      "count": 681,
      "max": [
        0.9996177554130554,
        0.9997673630714417,
        0.9669162631034851
      ],
      "min": [
        -0.9998737573623657,
        -0.9931775331497192,
        -0.9995960593223572
      ],
      "type": "VEC3"
    },
    {
      "bufferView": 38,
      "componentType": 5126,
      "count": 681,
      "max": [
        0.9881330132484436,
        0.99098801612854
      ],
      "min": [
        0.012357000261545181,
        0.006063103675842285
      ],
      "type": "VEC2"
    },
    {
      "bufferView": 39,
      "componentType": 5126,
      "count": 681,
      "max": [
        1,
        0.5,
        0.25,
        0
      ],
      "min": [
        0.45974522829055786,
        0,
        0,
        0
      ],
      "type": "VEC4"
    },
    {
      "bufferView": 40,
      "componentType": 5123,
      "count": 681,
      "type": "VEC4"
    },
    {
      "bufferView": 41,
      "componentType": 5123,
      "count": 1668,
      "type": "SCALAR"
    },
    {
      "bufferView": 41,
      "byteOffset": 3336,
      "componentType": 5123,
      "count": 276,
      "type": "SCALAR"
    },
    {
      "bufferView": 42,
      "componentType": 5126,
      "count": 2830,
      "max": [
        0.3002322018146515,
        0.5326454043388367,
        1.7830283641815186
      ],
      "min": [
        -0.2445252686738968,
        0.16873182356357574,
        1.0347814559936523
      ],
      "type": "VEC3"
    },
    {
      "bufferView": 43,
      "componentType": 5126,
      "count": 2830,
      "max": [
        0.9988248348236084,
        0.9992474317550659,
        0.9975094795227051
      ],
      "min": [
        -0.9997364282608032,
        -0.9973058104515076,
        -0.9979179501533508
      ],
      "type": "VEC3"
    },
    {
      "bufferView": 44,
      "componentType": 5126,
      "count": 2830,
      "max": [
        0.9989228844642639,
        0.995285153388977,
        0.9978547692298889,
        1
      ],
      "min": [
        -0.9997249245643616,
        -0.999500572681427,
        -0.9983146786689758,
        -1
      ],
      "type": "VEC4"
    },
    {
      "bufferView": 45,
      "componentType": 5126,
      "count": 2830,
      "max": [
        0.9979309439659119,
        0.9949399828910828
      ],
      "min": [
        0.0005236968863755465,
        0.005422770977020264
      ],
      "type": "VEC2"
    },
    {
      "bufferView": 46,
      "componentType": 5126,
      "count": 2830,
      "max": [
        1,
        0.9999441504478455,
        0.9997099041938782,
        0
      ],
      "min": [
        3.427244519116357E-05,
        0,
        0,
        0
      ],
      "type": "VEC4"
    },
    {
      "bufferView": 47,
      "componentType": 5123,
      "count": 2830,
      "type": "VEC4"
    },
    {
      "bufferView": 48,
      "componentType": 5123,
      "count": 11802,
      "type": "SCALAR"
    },
    {
      "bufferView": 49,
      "componentType": 5126,
      "count": 479,
      "max": [
        0.30000945925712585,
        0.5314739942550659,
        1.7795469760894775
      ],
      "min": [
        -0.24452538788318634,
        0.16873545944690704,
        1.0347809791564941
      ],
      "type": "VEC3"
    },
    {
      "bufferView": 50,
      "componentType": 5126,
      "count": 479,
      "max": [
        0.9985024333000183,
        0.9948889017105103,
        0.983177900314331
      ],
      "min": [
        -0.9877830147743225,
        -0.9586248993873596,
        -0.9909694194793701
      ],
      "type": "VEC3"
    },
    {
      "bufferView": 51,
      "componentType": 5126,
      "count": 479,
      "max": [
        0.9621297121047974,
        0.9906502366065979,
        0.9888432025909424,
        1
      ],
      "min": [
        -0.9987910985946655,
        -0.9878441691398621,
        -0.9809275269508362,
        -1
      ],
      "type": "VEC4"
    },
    {
      "bufferView": 52,
      "componentType": 5126,
      "count": 479,
      "max": [
        0.49753299355506897,
        0.9949399828910828
      ],
      "min": [
        0.0005239999736659229,
        0.005423009395599365
      ],
      "type": "VEC2"
    },
    {
      "bufferView": 53,
      "componentType": 5126,
      "count": 479,
      "max": [
        1,
        0.72480708360672,
        0.6115042567253113,
        0
      ],
      "min": [
        0.07209452986717224,
        0,
        0,
        0
      ],
      "type": "VEC4"
    },
    {
      "bufferView": 54,
      "componentType": 5123,
      "count": 479,
      "type": "VEC4"
    },
    {
      "bufferView": 55,
      "componentType": 5123,
      "count": 1047,
      "type": "SCALAR"
    },
    {
      "bufferView": 56,
      "componentType": 5126,
      "count": 696,
      "max": [
        0.10090814530849457,
        0.47895678877830505,
        1.795083999633789
      ],
      "min": [
        -0.07806462794542313,
        0.2452954202890396,
        1.550480604171753
      ],
      "type": "VEC3"
    },
    {
      "bufferView": 57,
      "componentType": 5126,
      "count": 696,
      "max": [
        0.9996383786201477,
        0.9943506121635437,
        0.9924907088279724
      ],
      "min": [
        -0.9997385740280151,
        -0.9846760630607605,
        -0.9937077760696411
      ],
      "type": "VEC3"
    },
    {
      "bufferView": 58,
      "componentType": 5126,
      "count": 696,
      "max": [
        0.9985198974609375,
        0.9517571330070496,
        0.9838408827781677,
        1
      ],
      "min": [
        -0.9991562366485596,
        -0.80768883228302,
        -0.11095985770225525,
        -1
      ],
      "type": "VEC4"
    },
    {
      "bufferView": 59,
      "componentType": 5126,
      "count": 696,
      "max": [
        0.8890429735183716,
        0.3638309836387634
      ],
      "min": [
        0.6140030026435852,
        0.059683024883270264
      ],
      "type": "VEC2"
    },
    {
      "bufferView": 60,
      "componentType": 5126,
      "count": 696,
      "max": [
        1,
        0,
        0,
        0
      ],
      "min": [
        1,
        0,
        0,
        0
      ],
      "type": "VEC4"
    },
    {
      "bufferView": 61,
      "componentType": 5123,
      "count": 696,
      "type": "VEC4"
    },
    {
      "bufferView": 62,
      "componentType": 5123,
      "count": 2742,
      "type": "SCALAR"
    },
    {
      "bufferView": 63,
      "componentType": 5126,
      "count": 43,
      "max": [
        0.10111051052808762,
        0.48145654797554016,
        1.7944844961166382
      ],
      "min": [
        -0.07250203937292099,
        0.24353212118148804,
        1.551810383796692
      ],
      "type": "VEC3"
    },
    {
      "bufferView": 64,
      "componentType": 5126,
      "count": 43,
      "max": [
        0.919704794883728,
        0.9964113831520081,
        0.9846013784408569
      ],
      "min": [
        -0.9544375538825989,
        -0.9199655055999756,
        -0.09667784720659256
      ],
      "type": "VEC3"
    },
    {
      "bufferView": 65,
      "componentType": 5126,
      "count": 43,
      "max": [
        0.9875067472457886,
        0.8978350162506104,
        0.9920343160629272,
        1
      ],
      "min": [
        -0.9493924379348755,
        -0.3298260569572449,
        -0.02305755391716957,
        -1
      ],
      "type": "VEC4"
    },
    {
      "bufferView": 66,
      "componentType": 5126,
      "count": 43,
      "max": [
        0.8737211227416992,
        0.375430703163147
      ],
      "min": [
        0.7375440001487732,
        0.0603100061416626
      ],
      "type": "VEC2"
    },
    {
      "bufferView": 67,
      "componentType": 5126,
      "count": 43,
      "max": [
        1,
        0,
        0,
        0
      ],
      "min": [
        1,
        0,
        0,
        0
      ],
      "type": "VEC4"
    },
    {
      "bufferView": 68,
      "componentType": 5123,
      "count": 43,
      "type": "VEC4"
    },
    {
      "bufferView": 69,
      "componentType": 5123,
      "count": 96,
      "type": "SCALAR"
    },
    {
      "bufferView": 70,
      "componentType": 5126,
      "count": 24,
      "max": [
        1.25,
        1.25,
        1.25
      ],
      "min": [
        -1.25,
        -1.25,
        -1.25
      ],
      "type": "VEC3"
    },
    {
      "bufferView": 71,
      "componentType": 5126,
      "count": 24,
      "max": [
        1,
        1,
        1
      ],
      "min": [
        -1,
        -1,
        -1
      ],
      "type": "VEC3"
    },
    {
      "bufferView": 72,
      "componentType": 5123,
      "count": 36,
      "type": "SCALAR"
    },
    {
      "bufferView": 73,
      "componentType": 5126,
      "count": 38,
      "max": [
        0.2449999898672104,
        0.21217621862888336,
        0.6499999761581421
      ],
      "min": [
        -0.2449999898672104,
        -0.21217621862888336,
        -0.6499999761581421
      ],
      "type": "VEC3"
    },
    {
      "bufferView": 74,
      "componentType": 5123,
      "count": 216,
      "type": "SCALAR"
    },
    {
      "bufferView": 75,
      "componentType": 5126,
      "count": 1825,
      "max": [
        0.09497669339179993,
        0.4124528765678406,
        1.6874109506607056
      ],
      "min": [
        -0.07749174535274506,
        0.2816181778907776,
        1.5693906545639038
      ],
      "type": "VEC3"
    },
    {
      "bufferView": 76,
      "componentType": 5126,
      "count": 1825,
      "max": [
        0.9999595880508423,
        0.9988714456558228,
        0.9982419610023499
      ],
      "min": [
        -0.9991421699523926,
        -0.9928483963012695,
        -0.9998591542243958
      ],
      "type": "VEC3"
    },
    {
      "bufferView": 77,
      "componentType": 5126,
      "count": 1825,
      "max": [
        0.557616114616394,
        0.9763811230659485
      ],
      "min": [
        0.547824501991272,
        0.9666439294815063
      ],
      "type": "VEC2"
    },
    {
      "bufferView": 78,
      "componentType": 5126,
      "count": 1825,
      "max": [
        1,
        0,
        0,
        0
      ],
      "min": [
        1,
        0,
        0,
        0
      ],
      "type": "VEC4"
    },
    {
      "bufferView": 79,
      "componentType": 5123,
      "count": 1825,
      "type": "VEC4"
    },
    {
      "bufferView": 80,
      "componentType": 5123,
      "count": 5958,
      "type": "SCALAR"
    },
    {
      "bufferView": 81,
      "componentType": 5126,
      "count": 124,
      "max": [
        0.07887428253889084,
        0.4126425087451935,
        1.6179898977279663
      ],
      "min": [
        -0.0661841332912445,
        0.37266653776168823,
        1.5694810152053833
      ],
      "type": "VEC3"
    },
    {
      "bufferView": 82,
      "componentType": 5126,
      "count": 124,
      "max": [
        0.9696860909461975,
        0.9869133234024048,
        0.9965597987174988
      ],
      "min": [
        -0.991652250289917,
        -0.9754868745803833,
        -0.9261408448219299
      ],
      "type": "VEC3"
    },
    {
      "bufferView": 83,
      "componentType": 5126,
      "count": 124,
      "max": [
        0.5575078725814819,
        0.9762908816337585
      ],
      "min": [
        0.550051748752594,
        0.9668226838111877
      ],
      "type": "VEC2"
    },
    {
      "bufferView": 84,
      "componentType": 5126,
      "count": 124,
      "max": [
        1,
        0,
        0,
        0
      ],
      "min": [
        1,
        0,
        0,
        0
      ],
      "type": "VEC4"
    },
    {
      "bufferView": 85,
      "componentType": 5123,
      "count": 124,
      "type": "VEC4"
    },
    {
      "bufferView": 86,
      "componentType": 5123,
      "count": 459,
      "type": "SCALAR"
    },
    {
      "name": "Bind Matrices",
      "bufferView": 87,
      "componentType": 5126,
      "count": 54,
      "max": [
        0.9330736994743347,
        0.3269653916358948,
        0.7319797277450562,
        0,
        0.7471967935562134,
        0.9990724325180054,
        1,
        0,
        0.7826706171035767,
        1,
        0.8584468364715576,
        0,
        0.9744070768356323,
        1.373304009437561,
        0.8394023776054382,
        1
      ],
      "min": [
        -1,
        -0.5748156905174255,
        -0.06518575549125671,
        -0,
        -0.7907045483589172,
        -0.992940366268158,
        -0.9905019402503967,
        -0,
        -0.7766317129135132,
        -0.9914441704750061,
        -0.8018704056739807,
        -0,
        -0.9768891930580139,
        -1.4037188291549683,
        -0.9408512115478516,
        1
      ],
      "type": "MAT4"
    },
    {
      "name": "Bind Matrices",
      "bufferView": 88,
      "componentType": 5126,
      "count": 54,
      "max": [
        0.9330736994743347,
        0.3269653916358948,
        0.7319797277450562,
        0,
        0.7471967935562134,
        0.9990724325180054,
        1,
        0,
        0.7826706171035767,
        1,
        0.8584468364715576,
        0,
        0.9744070768356323,
        1.373304009437561,
        0.8394023776054382,
        1
      ],
      "min": [
        -1,
        -0.5748156905174255,
        -0.06518575549125671,
        -0,
        -0.7907045483589172,
        -0.992940366268158,
        -0.9905019402503967,
        -0,
        -0.7766317129135132,
        -0.9914441704750061,
        -0.8018704056739807,
        -0,
        -0.9768891930580139,
        -1.4037188291549683,
        -0.9408512115478516,
        1
      ],
      "type": "MAT4"
    },
    {
      "name": "Bind Matrices",
      "bufferView": 89,
      "componentType": 5126,
      "count": 54,
      "max": [
        0.9330736994743347,
        0.3269653916358948,
        0.7319797277450562,
        0,
        0.7471967935562134,
        0.9990724325180054,
        1,
        0,
        0.7826706171035767,
        1,
        0.8584468364715576,
        0,
        0.9744070768356323,
        1.373304009437561,
        0.8394023776054382,
        1
      ],
      "min": [
        -1,
        -0.5748156905174255,
        -0.06518575549125671,
        -0,
        -0.7907045483589172,
        -0.992940366268158,
        -0.9905019402503967,
        -0,
        -0.7766317129135132,
        -0.9914441704750061,
        -0.8018704056739807,
        -0,
        -0.9768891930580139,
        -1.4037188291549683,
        -0.9408512115478516,
        1
      ],
      "type": "MAT4"
    },
    {
      "name": "Bind Matrices",
      "bufferView": 90,
      "componentType": 5126,
      "count": 54,
      "max": [
        0.9330736994743347,
        0.3269653916358948,
        0.7319797277450562,
        0,
        0.7471967935562134,
        0.9990724325180054,
        1,
        0,
        0.7826706171035767,
        1,
        0.8584468364715576,
        0,
        0.9744070768356323,
        1.373304009437561,
        0.8394023776054382,
        1
      ],
      "min": [
        -1,
        -0.5748156905174255,
        -0.06518575549125671,
        -0,
        -0.7907045483589172,
        -0.992940366268158,
        -0.9905019402503967,
        -0,
        -0.7766317129135132,
        -0.9914441704750061,
        -0.8018704056739807,
        -0,
        -0.9768891930580139,
        -1.4037188291549683,
        -0.9408512115478516,
        1
      ],
      "type": "MAT4"
    },
    {
      "name": "Bind Matrices",
      "bufferView": 91,
      "componentType": 5126,
      "count": 54,
      "max": [
        0.9330736994743347,
        0.3269653916358948,
        0.7319797277450562,
        0,
        0.7471967935562134,
        0.9990724325180054,
        1,
        0,
        0.7826706171035767,
        1,
        0.8584468364715576,
        0,
        0.9744070768356323,
        1.373304009437561,
        0.8394023776054382,
        1
      ],
      "min": [
        -1,
        -0.5748156905174255,
        -0.06518575549125671,
        -0,
        -0.7907045483589172,
        -0.992940366268158,
        -0.9905019402503967,
        -0,
        -0.7766317129135132,
        -0.9914441704750061,
        -0.8018704056739807,
        -0,
        -0.9768891930580139,
        -1.4037188291549683,
        -0.9408512115478516,
        1
      ],
      "type": "MAT4"
    },
    {
      "name": "Bind Matrices",
      "bufferView": 92,
      "componentType": 5126,
      "count": 1,
      "max": [
        -0.9987910985946655,
        0.008542072027921677,
        -0.048408862203359604,
        0,
        -0.031602080911397934,
        0.6427297592163086,
        0.7654408812522888,
        0,
        0.03765226900577545,
        0.766045331954956,
        -0.6416828036308289,
        -0,
        -0.04364817216992378,
        -1.4037188291549683,
        0.8394023776054382,
        1
      ],
      "min": [
        -0.9987910985946655,
        0.008542072027921677,
        -0.048408862203359604,
        0,
        -0.031602080911397934,
        0.6427297592163086,
        0.7654408812522888,
        0,
        0.03765226900577545,
        0.766045331954956,
        -0.6416828036308289,
        -0,
        -0.04364817216992378,
        -1.4037188291549683,
        0.8394023776054382,
        1
      ],
      "type": "MAT4"
    },
    {
      "name": "Bind Matrices",
      "bufferView": 93,
      "componentType": 5126,
      "count": 54,
      "max": [
        0.9330736994743347,
        0.3269653916358948,
        0.7319797277450562,
        0,
        0.7471967935562134,
        0.9990724325180054,
        1,
        0,
        0.7826706171035767,
        1,
        0.8584468364715576,
        0,
        0.9744070768356323,
        1.373304009437561,
        0.8394023776054382,
        1
      ],
      "min": [
        -1,
        -0.5748156905174255,
        -0.06518575549125671,
        -0,
        -0.7907045483589172,
        -0.992940366268158,
        -0.9905019402503967,
        -0,
        -0.7766317129135132,
        -0.9914441704750061,
        -0.8018704056739807,
        -0,
        -0.9768891930580139,
        -1.4037188291549683,
        -0.9408512115478516,
        1
      ],
      "type": "MAT4"
    },
    {
      "name": "Bind Matrices",
      "bufferView": 94,
      "componentType": 5126,
      "count": 2,
      "max": [
        -0.9987910985946655,
        0.008542072027921677,
        1.2246465878873718E-16,
        0,
        1.2246465878873718E-16,
        0.6427295207977295,
        1,
        0,
        0.037652160972356796,
        1,
        0,
        -0,
        1.246361600979216E-16,
        -1.0177668333053589,
        0.8394017815589905,
        1
      ],
      "min": [
        -1,
        -0,
        -0.04840870201587677,
        -0,
        -0.03160196542739868,
        0,
        0.7654410004615784,
        -0,
        0,
        0.7660456299781799,
        -0.6416826248168945,
        -0,
        -0.04364801198244095,
        -1.4037188291549683,
        -0.05329480022192001,
        1
      ],
      "type": "MAT4"
    },
    {
      "name": "Bind Matrices",
      "bufferView": 95,
      "componentType": 5126,
      "count": 2,
      "max": [
        -0.9987910985946655,
        0.008542072027921677,
        1.2246465878873718E-16,
        0,
        1.2246465878873718E-16,
        0.6427295207977295,
        1,
        0,
        0.037652160972356796,
        1,
        0,
        -0,
        1.246361600979216E-16,
        -1.0177668333053589,
        0.8394017815589905,
        1
      ],
      "min": [
        -1,
        -0,
        -0.04840870201587677,
        -0,
        -0.03160196542739868,
        0,
        0.7654410004615784,
        -0,
        0,
        0.7660456299781799,
        -0.6416826248168945,
        -0,
        -0.04364801198244095,
        -1.4037188291549683,
        -0.05329480022192001,
        1
      ],
      "type": "MAT4"
    }
  ],
  "bufferViews": [
    {
      "buffer": 0,
      "byteLength": 1680,
      "byteOffset": 762736,
      "byteStride": 12,
      "target": 34962
    },
    {
      "buffer": 0,
      "byteLength": 1680,
      "byteOffset": 764416,
      "byteStride": 12,
      "target": 34962
    },
    {
      "buffer": 0,
      "byteLength": 1680,
      "byteOffset": 766096,
      "byteStride": 12,
      "target": 34962
    },
    {
      "buffer": 0,
      "byteLength": 1152,
      "byteOffset": 773624,
      "target": 34963
    },
    {
      "buffer": 0,
      "byteLength": 792,
      "byteOffset": 776688,
      "byteStride": 12,
      "target": 34962
    },
    {
      "buffer": 0,
      "byteLength": 768,
      "byteOffset": 783816,
      "target": 34963
    },
    {
      "buffer": 0,
      "byteLength": 792,
      "byteOffset": 777480,
      "byteStride": 12,
      "target": 34962
    },
    {
      "buffer": 0,
      "byteLength": 768,
      "byteOffset": 784584,
      "target": 34963
    },
    {
      "buffer": 0,
      "byteLength": 792,
      "byteOffset": 778272,
      "byteStride": 12,
      "target": 34962
    },
    {
      "buffer": 0,
      "byteLength": 768,
      "byteOffset": 785352,
      "target": 34963
    },
    {
      "buffer": 0,
      "byteLength": 792,
      "byteOffset": 779064,
      "byteStride": 12,
      "target": 34962
    },
    {
      "buffer": 0,
      "byteLength": 768,
      "byteOffset": 786120,
      "target": 34963
    },
    {
      "buffer": 0,
      "byteLength": 792,
      "byteOffset": 779856,
      "byteStride": 12,
      "target": 34962
    },
    {
      "buffer": 0,
      "byteLength": 768,
      "byteOffset": 786888,
      "target": 34963
    },
    {
      "buffer": 0,
      "byteLength": 288,
      "byteOffset": 794884,
      "byteStride": 12,
      "target": 34962
    },
    {
      "buffer": 0,
      "byteLength": 288,
      "byteOffset": 795172,
      "byteStride": 12,
      "target": 34962
    },
    {
      "buffer": 0,
      "byteLength": 288,
      "byteOffset": 795460,
      "byteStride": 12,
      "target": 34962
    },
    {
      "buffer": 0,
      "byteLength": 72,
      "byteOffset": 796772,
      "target": 34963
    },
    {
      "buffer": 0,
      "byteLength": 792,
      "byteOffset": 780648,
      "byteStride": 12,
      "target": 34962
    },
    {
      "buffer": 0,
      "byteLength": 768,
      "byteOffset": 787656,
      "target": 34963
    },
    {
      "buffer": 0,
      "byteLength": 792,
      "byteOffset": 781440,
      "byteStride": 12,
      "target": 34962
    },
    {
      "buffer": 0,
      "byteLength": 768,
      "byteOffset": 788424,
      "target": 34963
    },
    {
      "buffer": 0,
      "byteLength": 792,
      "byteOffset": 782232,
      "byteStride": 12,
      "target": 34962
    },
    {
      "buffer": 0,
      "byteLength": 768,
      "byteOffset": 789192,
      "target": 34963
    },
    {
      "buffer": 0,
      "byteLength": 792,
      "byteOffset": 783024,
      "byteStride": 12,
      "target": 34962
    },
    {
      "buffer": 0,
      "byteLength": 768,
      "byteOffset": 789960,
      "target": 34963
    },
    {
      "buffer": 0,
      "byteLength": 2076,
      "byteOffset": 756732,
      "byteStride": 12,
      "target": 34962
    },
    {
      "buffer": 0,
      "byteLength": 2768,
      "byteOffset": 751868,
      "byteStride": 16,
      "target": 34962
    },
    {
      "buffer": 0,
      "byteLength": 1384,
      "byteOffset": 772240,
      "byteStride": 8,
      "target": 34962
    },
    {
      "buffer": 0,
      "byteLength": 1944,
      "byteOffset": 760792,
      "target": 34963
    },
    {
      "buffer": 0,
      "byteLength": 40812,
      "byteOffset": 144976,
      "byteStride": 12,
      "target": 34962
    },
    {
      "buffer": 0,
      "byteLength": 40812,
      "byteOffset": 185788,
      "byteStride": 12,
      "target": 34962
    },
    {
      "buffer": 0,
      "byteLength": 40812,
      "byteOffset": 226600,
      "byteStride": 12,
      "target": 34962
    },
    {
      "buffer": 0,
      "byteLength": 54416,
      "byteStride": 16,
      "target": 34962
    },
    {
      "buffer": 0,
      "byteLength": 27208,
      "byteOffset": 425932,
      "byteStride": 8,
      "target": 34962
    },
    {
      "buffer": 0,
      "byteLength": 27438,
      "byteOffset": 398492,
      "target": 34963
    },
    {
      "buffer": 0,
      "byteLength": 8172,
      "byteOffset": 649824,
      "byteStride": 12,
      "target": 34962
    },
    {
      "buffer": 0,
      "byteLength": 8172,
      "byteOffset": 657996,
      "byteStride": 12,
      "target": 34962
    },
    {
      "buffer": 0,
      "byteLength": 8172,
      "byteOffset": 666168,
      "byteStride": 12,
      "target": 34962
    },
    {
      "buffer": 0,
      "byteLength": 10896,
      "byteOffset": 613872,
      "byteStride": 16,
      "target": 34962
    },
    {
      "buffer": 0,
      "byteLength": 5448,
      "byteOffset": 717964,
      "byteStride": 8,
      "target": 34962
    },
    {
      "buffer": 0,
      "byteLength": 3888,
      "byteOffset": 723412,
      "target": 34963
    },
    {
      "buffer": 0,
      "byteLength": 33960,
      "byteOffset": 267412,
      "byteStride": 12,
      "target": 34962
    },
    {
      "buffer": 0,
      "byteLength": 33960,
      "byteOffset": 301372,
      "byteStride": 12,
      "target": 34962
    },
    {
      "buffer": 0,
      "byteLength": 45280,
      "byteOffset": 54416,
      "byteStride": 16,
      "target": 34962
    },
    {
      "buffer": 0,
      "byteLength": 33960,
      "byteOffset": 335332,
      "byteStride": 12,
      "target": 34962
    },
    {
      "buffer": 0,
      "byteLength": 45280,
      "byteOffset": 99696,
      "byteStride": 16,
      "target": 34962
    },
    {
      "buffer": 0,
      "byteLength": 22640,
      "byteOffset": 476744,
      "byteStride": 8,
      "target": 34962
    },
    {
      "buffer": 0,
      "byteLength": 23604,
      "byteOffset": 453140,
      "target": 34963
    },
    {
      "buffer": 0,
      "byteLength": 5748,
      "byteOffset": 689668,
      "byteStride": 12,
      "target": 34962
    },
    {
      "buffer": 0,
      "byteLength": 5748,
      "byteOffset": 695416,
      "byteStride": 12,
      "target": 34962
    },
    {
      "buffer": 0,
      "byteLength": 7664,
      "byteOffset": 674340,
      "byteStride": 16,
      "target": 34962
    },
    {
      "buffer": 0,
      "byteLength": 5748,
      "byteOffset": 701164,
      "byteStride": 12,
      "target": 34962
    },
    {
      "buffer": 0,
      "byteLength": 7664,
      "byteOffset": 682004,
      "byteStride": 16,
      "target": 34962
    },
    {
      "buffer": 0,
      "byteLength": 3832,
      "byteOffset": 727300,
      "byteStride": 8,
      "target": 34962
    },
    {
      "buffer": 0,
      "byteLength": 2094,
      "byteOffset": 754636,
      "target": 34963
    },
    {
      "buffer": 0,
      "byteLength": 8352,
      "byteOffset": 624768,
      "byteStride": 12,
      "target": 34962
    },
    {
      "buffer": 0,
      "byteLength": 8352,
      "byteOffset": 633120,
      "byteStride": 12,
      "target": 34962
    },
    {
      "buffer": 0,
      "byteLength": 11136,
      "byteOffset": 591600,
      "byteStride": 16,
      "target": 34962
    },
    {
      "buffer": 0,
      "byteLength": 8352,
      "byteOffset": 641472,
      "byteStride": 12,
      "target": 34962
    },
    {
      "buffer": 0,
      "byteLength": 11136,
      "byteOffset": 602736,
      "byteStride": 16,
      "target": 34962
    },
    {
      "buffer": 0,
      "byteLength": 5568,
      "byteOffset": 706912,
      "byteStride": 8,
      "target": 34962
    },
    {
      "buffer": 0,
      "byteLength": 5484,
      "byteOffset": 712480,
      "target": 34963
    },
    {
      "buffer": 0,
      "byteLength": 516,
      "byteOffset": 792104,
      "byteStride": 12,
      "target": 34962
    },
    {
      "buffer": 0,
      "byteLength": 516,
      "byteOffset": 792620,
      "byteStride": 12,
      "target": 34962
    },
    {
      "buffer": 0,
      "byteLength": 688,
      "byteOffset": 790728,
      "byteStride": 16,
      "target": 34962
    },
    {
      "buffer": 0,
      "byteLength": 516,
      "byteOffset": 793136,
      "byteStride": 12,
      "target": 34962
    },
    {
      "buffer": 0,
      "byteLength": 688,
      "byteOffset": 791416,
      "byteStride": 16,
      "target": 34962
    },
    {
      "buffer": 0,
      "byteLength": 344,
      "byteOffset": 794540,
      "byteStride": 8,
      "target": 34962
    },
    {
      "buffer": 0,
      "byteLength": 192,
      "byteOffset": 796324,
      "target": 34963
    },
    {
      "buffer": 0,
      "byteLength": 288,
      "byteOffset": 795748,
      "byteStride": 12,
      "target": 34962
    },
    {
      "buffer": 0,
      "byteLength": 288,
      "byteOffset": 796036,
      "byteStride": 12,
      "target": 34962
    },
    {
      "buffer": 0,
      "byteLength": 72,
      "byteOffset": 796844,
      "target": 34963
    },
    {
      "buffer": 0,
      "byteLength": 456,
      "byteOffset": 793652,
      "byteStride": 12,
      "target": 34962
    },
    {
      "buffer": 0,
      "byteLength": 432,
      "byteOffset": 794108,
      "target": 34963
    },
    {
      "buffer": 0,
      "byteLength": 21900,
      "byteOffset": 499384,
      "byteStride": 12,
      "target": 34962
    },
    {
      "buffer": 0,
      "byteLength": 21900,
      "byteOffset": 521284,
      "byteStride": 12,
      "target": 34962
    },
    {
      "buffer": 0,
      "byteLength": 21900,
      "byteOffset": 543184,
      "byteStride": 12,
      "target": 34962
    },
    {
      "buffer": 0,
      "byteLength": 29200,
      "byteOffset": 369292,
      "byteStride": 16,
      "target": 34962
    },
    {
      "buffer": 0,
      "byteLength": 14600,
      "byteOffset": 565084,
      "byteStride": 8,
      "target": 34962
    },
    {
      "buffer": 0,
      "byteLength": 11916,
      "byteOffset": 579684,
      "target": 34963
    },
    {
      "buffer": 0,
      "byteLength": 1488,
      "byteOffset": 767776,
      "byteStride": 12,
      "target": 34962
    },
    {
      "buffer": 0,
      "byteLength": 1488,
      "byteOffset": 769264,
      "byteStride": 12,
      "target": 34962
    },
    {
      "buffer": 0,
      "byteLength": 1488,
      "byteOffset": 770752,
      "byteStride": 12,
      "target": 34962
    },
    {
      "buffer": 0,
      "byteLength": 1984,
      "byteOffset": 758808,
      "byteStride": 16,
      "target": 34962
    },
    {
      "buffer": 0,
      "byteLength": 992,
      "byteOffset": 774776,
      "byteStride": 8,
      "target": 34962
    },
    {
      "buffer": 0,
      "byteLength": 918,
      "byteOffset": 775768,
      "target": 34963
    },
    {
      "buffer": 0,
      "byteLength": 3456,
      "byteOffset": 731132
    },
    {
      "buffer": 0,
      "byteLength": 3456,
      "byteOffset": 734588
    },
    {
      "buffer": 0,
      "byteLength": 3456,
      "byteOffset": 738044
    },
    {
      "buffer": 0,
      "byteLength": 3456,
      "byteOffset": 741500
    },
    {
      "buffer": 0,
      "byteLength": 3456,
      "byteOffset": 744956
    },
    {
      "buffer": 0,
      "byteLength": 64,
      "byteOffset": 796916
    },
    {
      "buffer": 0,
      "byteLength": 3456,
      "byteOffset": 748412
    },
    {
      "buffer": 0,
      "byteLength": 128,
      "byteOffset": 796516
    },
    {
      "buffer": 0,
      "byteLength": 128,
      "byteOffset": 796644
    }
  ],
  "buffers": [
    {
      "byteLength": 796980,
      "uri": "ene_lapd_veteran_cop_2.bin"
    }
  ],
  "materials": [
    {
      "name": "lambert1"
    },
    {
      "name": "shadow_caster"
    },
    {
      "name": "mtr_security_body"
    },
    {
      "name": "mtr_security_head"
    },
    {
      "name": "Material: Default Material"
    },
    {
      "name": "mtr_secret_service"
    },
    {
      "name": "mtr_vest_small"
    },
    {
      "name": "mtr_body"
    },
    {
      "name": "mtr_glass"
    }
  ],
  "meshes": [
    {
      "name": "g_glass",
      "primitives": [
        {
          "attributes": {
            "POSITION": 0,
            "NORMAL": 1,
            "TEXCOORD_0": 2
          },
          "indices": 3,
          "material": 8
        }
      ]
    },
    {
      "name": "c_capsule_LeftForeArm",
      "primitives": [
        {
          "attributes": {
            "POSITION": 4
          },
          "indices": 5
        }
      ]
    },
    {
      "name": "c_capsule_LeftArm",
      "primitives": [
        {
          "attributes": {
            "POSITION": 6
          },
          "indices": 7
        }
      ]
    },
    {
      "name": "c_capsule_RightForeArm",
      "primitives": [
        {
          "attributes": {
            "POSITION": 8
          },
          "indices": 9
        }
      ]
    },
    {
      "name": "c_capsule_RightArm",
      "primitives": [
        {
          "attributes": {
            "POSITION": 10
          },
          "indices": 11
        }
      ]
    },
    {
      "name": "c_capsule_body",
      "primitives": [
        {
          "attributes": {
            "POSITION": 12
          },
          "indices": 13
        }
      ]
    },
    {
      "name": "c_capsule_body_new",
      "primitives": [
        {
          "attributes": {
            "POSITION": 14,
            "NORMAL": 15,
            "TEXCOORD_0": 16
          },
          "indices": 17
        }
      ]
    },
    {
      "name": "c_capsule_LeftLeg",
      "primitives": [
        {
          "attributes": {
            "POSITION": 18
          },
          "indices": 19
        }
      ]
    },
    {
      "name": "c_capsule_LeftUpLeg",
      "primitives": [
        {
          "attributes": {
            "POSITION": 20
          },
          "indices": 21
        }
      ]
    },
    {
      "name": "c_capsule_RightLeg",
      "primitives": [
        {
          "attributes": {
            "POSITION": 22
          },
          "indices": 23
        }
      ]
    },
    {
      "name": "c_capsule_RightUpLeg",
      "primitives": [
        {
          "attributes": {
            "POSITION": 24
          },
          "indices": 25
        }
      ]
    },
    {
      "name": "s_body",
      "primitives": [
        {
          "attributes": {
            "POSITION": 26,
            "WEIGHTS_0": 27,
            "JOINTS_0": 28
          },
          "indices": 29,
          "material": 1
        }
      ]
    },
    {
      "name": "g_body",
      "primitives": [
        {
          "attributes": {
            "POSITION": 30,
            "NORMAL": 31,
            "TEXCOORD_0": 32,
            "WEIGHTS_0": 33,
            "JOINTS_0": 34
          },
          "indices": 35,
          "material": 5
        },
        {
          "attributes": {
            "POSITION": 30,
            "NORMAL": 31,
            "TEXCOORD_0": 32,
            "WEIGHTS_0": 33,
            "JOINTS_0": 34
          },
          "indices": 36,
          "material": 6
        },
        {
          "attributes": {
            "POSITION": 30,
            "NORMAL": 31,
            "TEXCOORD_0": 32,
            "WEIGHTS_0": 33,
            "JOINTS_0": 34
          },
          "indices": 37,
          "material": 7
        }
      ]
    },
    {
      "name": "g_body_lod1",
      "primitives": [
        {
          "attributes": {
            "POSITION": 38,
            "NORMAL": 39,
            "TEXCOORD_0": 40,
            "WEIGHTS_0": 41,
            "JOINTS_0": 42
          },
          "indices": 43,
          "material": 5
        },
        {
          "attributes": {
            "POSITION": 38,
            "NORMAL": 39,
            "TEXCOORD_0": 40,
            "WEIGHTS_0": 41,
            "JOINTS_0": 42
          },
          "indices": 44,
          "material": 6
        }
      ]
    },
    {
      "name": "g_head",
      "primitives": [
        {
          "attributes": {
            "POSITION": 45,
            "NORMAL": 46,
            "TANGENT": 47,
            "TEXCOORD_0": 48,
            "WEIGHTS_0": 49,
            "JOINTS_0": 50
          },
          "indices": 51,
          "material": 3
        }
      ]
    },
    {
      "name": "g_head_lod1",
      "primitives": [
        {
          "attributes": {
            "POSITION": 52,
            "NORMAL": 53,
            "TANGENT": 54,
            "TEXCOORD_0": 55,
            "WEIGHTS_0": 56,
            "JOINTS_0": 57
          },
          "indices": 58,
          "material": 3
        }
      ]
    },
    {
      "name": "g_hat_lod1",
      "primitives": [
        {
          "attributes": {
            "POSITION": 59,
            "NORMAL": 60,
            "TANGENT": 61,
            "TEXCOORD_0": 62,
            "WEIGHTS_0": 63,
            "JOINTS_0": 64
          },
          "indices": 65,
          "material": 2
        }
      ]
    },
    {
      "name": "g_hat_lod2",
      "primitives": [
        {
          "attributes": {
            "POSITION": 66,
            "NORMAL": 67,
            "TANGENT": 68,
            "TEXCOORD_0": 69,
            "WEIGHTS_0": 70,
            "JOINTS_0": 71
          },
          "indices": 72,
          "material": 2
        }
      ]
    },
    {
      "name": "bounding_box_char",
      "primitives": [
        {
          "attributes": {
            "POSITION": 73,
            "NORMAL": 74
          },
          "indices": 75
        }
      ]
    },
    {
      "name": "c_capsule_mover_blocker",
      "primitives": [
        {
          "attributes": {
            "POSITION": 76
          },
          "indices": 77
        }
      ]
    },
    {
      "name": "g_shades",
      "primitives": [
        {
          "attributes": {
            "POSITION": 78,
            "NORMAL": 79,
            "TEXCOORD_0": 80,
            "WEIGHTS_0": 81,
            "JOINTS_0": 82
          },
          "indices": 83,
          "material": 7
        }
      ]
    },
    {
      "name": "g_shades_lod1",
      "primitives": [
        {
          "attributes": {
            "POSITION": 84,
            "NORMAL": 85,
            "TEXCOORD_0": 86,
            "WEIGHTS_0": 87,
            "JOINTS_0": 88
          },
          "indices": 89,
          "material": 7
        }
      ]
    }
  ],
  "nodes": [
    {
      "name": "root_point",
      "children": [
        1,
        85
      ]
    },
    {
      "name": "Hips",
      "children": [
        2,
        64,
        70,
        76,
        84
      ],
      "matrix": [
        -1,
        1.2246469E-16,
        0,
        0,
        -6.162976E-32,
        -4.440892E-16,
        1,
        0,
        1.2246469E-16,
        1,
        4.440892E-16,
        0,
        1.3116289E-16,
        0.0532948,
        1.0177668,
        1
      ]
    },
    {
      "name": "Spine",
      "children": [
        3,
        63
      ],
      "matrix": [
        0.9996954,
        0.017449748,
        -0.017452406,
        0,
        -0.014157148,
        0.98471063,
        0.17362173,
        0,
        0.020215226,
        -0.17332177,
        0.98465776,
        0,
        3.2518538E-25,
        0.12968117,
        2.6645352E-17,
        1
      ]
    },
    {
      "name": "Spine1",
      "children": [
        4,
        59,
        60,
        61,
        62
      ],
      "matrix": [
        0.9996954,
        0.017449748,
        -0.017452406,
        0,
        -0.014157148,
        0.98471063,
        0.17362173,
        0,
        0.020215226,
        -0.17332177,
        0.98465776,
        0,
        2.8847923E-25,
        0.12197179,
        -1.1546319E-16,
        1
      ]
    },
    {
      "name": "Spine2",
      "children": [
        5,
        11,
        34,
        57,
        58
      ],
      "matrix": [
        1,
        0,
        0,
        0,
        0,
        0.9848077,
        0.17364818,
        0,
        0,
        -0.17364818,
        0.9848077,
        0,
        6.25555E-26,
        0.12226071,
        1.1546319E-16,
        1
      ]
    },
    {
      "name": "Neck",
      "children": [
        6
      ],
      "matrix": [
        1,
        0,
        0,
        0,
        0,
        0.9961947,
        0.087155744,
        0,
        0,
        -0.087155744,
        0.9961947,
        0,
        -3.7221097E-18,
        0.20159698,
        -0.03039333,
        1
      ]
    },
    {
      "name": "Head",
      "children": [
        7,
        8,
        9,
        10
      ],
      "matrix": [
        1,
        0,
        0,
        0,
        0,
        0.9961947,
        0.087155744,
        0,
        0,
        -0.087155744,
        0.9961947,
        0,
        3.722109E-18,
        0.074324116,
        0.03039333,
        1
      ]
    },
    {
      "name": "eyeAim",
      "matrix": [
        -1,
        1.2246469E-16,
        0,
        0,
        -6.162976E-32,
        -4.440892E-16,
        1,
        0,
        1.2246469E-16,
        1,
        4.440892E-16,
        0,
        9.367271E-18,
        0.061536215,
        0.14999999,
        1
      ]
    },
    {
      "name": "c_sphere_head",
      "matrix": [
        1.0000002,
        0,
        0,
        0,
        0,
        3.813617E-13,
        -1.0000002,
        0,
        0,
        1.0000002,
        3.813617E-13,
        0,
        -7.146684E-09,
        0.06526304,
        0.021115134,
        1
      ]
    },
    {
      "name": "c_sphere_head_ragdoll",
      "matrix": [
        1.0000002,
        0,
        0,
        0,
        0,
        3.813617E-13,
        -1.0000002,
        0,
        0,
        1.0000002,
        3.813617E-13,
        0,
        -7.146684E-09,
        0.070635125,
        0.026972596,
        1
      ]
    },
    {
      "name": "g_glass",
      "mesh": 0
    },
    {
      "name": "LeftShoulder",
      "children": [
        12
      ],
      "matrix": [
        0.9659258,
        0,
        0.25881904,
        0,
        0,
        1,
        0,
        0,
        -0.25881904,
        0,
        0.9659258,
        0,
        0.05483274,
        0.1181384,
        -1.9539925E-16,
        1
      ]
    },
    {
      "name": "LeftArm",
      "children": [
        13,
        33
      ],
      "matrix": [
        0.69854105,
        -0.606605,
        0.37956652,
        0,
        0.5983576,
        0.7860786,
        0.15507646,
        0,
        -0.39243925,
        0.11878924,
        0.91207486,
        0,
        0.15379527,
        -0.042830914,
        -0.023619968,
        1
      ]
    },
    {
      "name": "LeftForeArm",
      "children": [
        14,
        15,
        32
      ],
      "matrix": [
        -0.03714951,
        0,
        0.9993097,
        0,
        0,
        1,
        0,
        0,
        -0.9993097,
        0,
        -0.03714951,
        0,
        0.2329917,
        -1.9895197E-15,
        -2.825626E-05,
        1
      ]
    },
    {
      "name": "LeftForeArmRoll",
      "matrix": [
        1,
        0,
        0,
        0,
        0,
        1,
        0,
        0,
        0,
        0,
        1,
        0,
        0.12478465,
        1.9895197E-15,
        -1.8074431E-14,
        1
      ]
    },
    {
      "name": "LeftHand",
      "children": [
        16,
        19,
        22,
        25,
        28,
        31
      ],
      "matrix": [
        1,
        0,
        0,
        0,
        0,
        1,
        0,
        0,
        0,
        0,
        1,
        0,
        0.22533603,
        8.526512E-15,
        -4.885425E-14,
        1
      ]
    },
    {
      "name": "LeftHandThumb1",
      "children": [
        17
      ],
      "matrix": [
        0.644716,
        -0.20562525,
        0.73624694,
        0,
        0.13546467,
        0.9786308,
        0.1546967,
        0,
        -0.75232345,
        4.7283137E-09,
        0.65879387,
        0,
        0.04063378,
        -0.01851488,
        0.023243424,
        1
      ]
    },
    {
      "name": "LeftHandThumb2",
      "children": [
        18
      ],
      "matrix": [
        0.83245313,
        -0.10340719,
        -0.5443609,
        0,
        0.1271537,
        0.9918647,
        0.006031922,
        0,
        0.5393086,
        -0.07423879,
        0.83882946,
        0,
        0.03514106,
        -3.302216E-10,
        5.785385E-10,
        1
      ]
    },
    {
      "name": "LeftHandThumb3",
      "matrix": [
        0.98980975,
        -0.0015940333,
        -0.14238708,
        0,
        0.0015961677,
        0.99999875,
        -9.92294E-05,
        0,
        0.14238706,
        -0.00012905542,
        0.98981106,
        0,
        0.03845036,
        -7.901235E-14,
        -5.8099088E-11,
        1
      ]
    },
    {
      "name": "LeftHandIndex1",
      "children": [
        20
      ],
      "matrix": [
        0.99247795,
        0,
        0.122423664,
        0,
        0,
        1,
        0,
        0,
        -0.122423664,
        0,
        0.99247795,
        0,
        0.12764497,
        0.011487136,
        0.034969278,
        1
      ]
    },
    {
      "name": "LeftHandIndex2",
      "children": [
        21
      ],
      "matrix": [
        0.98774016,
        -0.15610693,
        0,
        0,
        0.15610693,
        0.98774016,
        0,
        0,
        0,
        0,
        1,
        0,
        0.033058077,
        1.0231815E-14,
        -2.1316282E-14,
        1
      ]
    },
    {
      "name": "LeftHandIndex3",
      "matrix": [
        0.98549986,
        -0.16967632,
        0,
        0,
        0.16967632,
        0.98549986,
        0,
        0,
        0,
        0,
        1,
        0,
        0.025176324,
        4.263256E-15,
        -1.8900436E-14,
        1
      ]
    },
    {
      "name": "LeftHandMiddle1",
      "children": [
        23
      ],
      "matrix": [
        0.9209486,
        -0.389346,
        0.016225861,
        0,
        0.38670588,
        0.9079799,
        -0.16134144,
        0,
        0.048084885,
        0.15486182,
        0.98676527,
        0,
        0.1268095,
        0.012150727,
        0.0078160865,
        1
      ]
    },
    {
      "name": "LeftHandMiddle2",
      "children": [
        24
      ],
      "matrix": [
        0.9907807,
        -0.13452004,
        -0.016058955,
        0,
        0.13449997,
        0.9909109,
        -0.0023284554,
        0,
        0.016226217,
        0.00014705978,
        0.99986833,
        0,
        0.039888963,
        -1.2862095E-05,
        2.3032724E-05,
        1
      ]
    },
    {
      "name": "LeftHandMiddle3",
      "matrix": [
        0.95739007,
        -0.2887979,
        0,
        0,
        0.2887979,
        0.95739007,
        0,
        0,
        0,
        0,
        1,
        0,
        0.025870664,
        0.00020367741,
        3.0199416E-11,
        1
      ]
    },
    {
      "name": "LeftHandRing1",
      "children": [
        26
      ],
      "matrix": [
        0.8337066,
        -0.5507309,
        0.040358502,
        0,
        0.54248995,
        0.80319387,
        -0.24613866,
        0,
        0.103140466,
        0.2271015,
        0.968394,
        0,
        0.11721901,
        0.009158163,
        -0.01647688,
        1
      ]
    },
    {
      "name": "LeftHandRing2",
      "children": [
        27
      ],
      "matrix": [
        0.9833375,
        -0.18178932,
        0,
        0,
        0.18178932,
        0.9833375,
        0,
        0,
        0,
        0,
        1,
        0,
        0.040302586,
        1.7905677E-14,
        -4.639844E-14,
        1
      ]
    },
    {
      "name": "LeftHandRing3",
      "matrix": [
        0.9327146,
        -0.3606155,
        0,
        0,
        0.3606155,
        0.9327146,
        0,
        0,
        0,
        0,
        1,
        0,
        0.024649527,
        5.1717422E-11,
        -3.7871927E-14,
        1
      ]
    },
    {
      "name": "LeftHandPinky1",
      "children": [
        29
      ],
      "matrix": [
        0.84496325,
        -0.5348244,
        -3.335397E-07,
        0,
        0.532204,
        0.8408234,
        -0.0988682,
        0,
        0.0528774,
        0.083539814,
        0.99510056,
        0,
        0.10923742,
        -0.00053078134,
        -0.035239156,
        1
      ]
    },
    {
      "name": "LeftHandPinky2",
      "children": [
        30
      ],
      "matrix": [
        0.95016265,
        -0.31175455,
        0,
        0,
        0.31175455,
        0.95016265,
        0,
        0,
        0,
        0,
        1,
        0,
        0.0314798,
        8.2422955E-15,
        -3.7232577E-14,
        1
      ]
    },
    {
      "name": "LeftHandPinky3",
      "matrix": [
        0.94689083,
        -0.32155514,
        0,
        0,
        0.32155514,
        0.94689083,
        0,
        0,
        0,
        0,
        1,
        0,
        0.018907126,
        -1.7309815E-11,
        -2.6005863E-14,
        1
      ]
    },
    {
      "name": "a_weapon_left_front",
      "matrix": [
        1,
        0,
        0,
        0,
        0,
        1,
        0,
        0,
        0,
        0,
        1,
        0,
        0.07529395,
        -0.047465935,
        -2.511353E-08,
        1
      ]
    },
    {
      "name": "c_capsule_LeftForeArm",
      "matrix": [
        0.040787708,
        0.18074836,
        -0.9826839,
        0,
        0.058243435,
        0.98139924,
        0.18292944,
        0,
        0.9974686,
        -0.06469619,
        0.029501809,
        0,
        0.16126007,
        -0.012402924,
        0.011740559,
        1
      ],
      "mesh": 1
    },
    {
      "name": "c_capsule_LeftArm",
      "matrix": [
        0.18000735,
        -0.24138853,
        -0.9535884,
        0,
        0.02828623,
        0.9702925,
        -0.24027751,
        0,
        0.9832591,
        0.016278265,
        0.18148768,
        0,
        0.08870487,
        0.0038234396,
        -0.0065071015,
        1
      ],
      "mesh": 2
    },
    {
      "name": "RightShoulder",
      "children": [
        35
      ],
      "matrix": [
        0.9914449,
        1.5984848E-17,
        -0.13052619,
        0,
        0,
        -1,
        -1.2246469E-16,
        0,
        -0.13052619,
        1.2141697E-16,
        -0.9914449,
        0,
        -0.0548327,
        0.11813945,
        -4.2650675E-11,
        1
      ]
    },
    {
      "name": "RightArm",
      "children": [
        36,
        56
      ],
      "matrix": [
        0.69854105,
        -0.606605,
        0.37956652,
        0,
        0.5983576,
        0.7860786,
        0.15507646,
        0,
        -0.39243925,
        0.11878924,
        0.91207486,
        0,
        -0.15379499,
        0.042831965,
        0.023619944,
        1
      ]
    },
    {
      "name": "RightForeArm",
      "children": [
        37,
        38,
        55
      ],
      "matrix": [
        0.18002129,
        0,
        0.9836627,
        0,
        0,
        1,
        0,
        0,
        -0.9836627,
        0,
        0.18002129,
        0,
        -0.2329915,
        -1.3503343E-06,
        2.8326525E-05,
        1
      ]
    },
    {
      "name": "RightForeArmRoll",
      "matrix": [
        1,
        0,
        0,
        0,
        0,
        1,
        0,
        0,
        0,
        0,
        1,
        0,
        -0.12478483,
        -9.667917E-08,
        2.5371165E-07,
        1
      ]
    },
    {
      "name": "RightHand",
      "children": [
        39,
        42,
        45,
        48,
        51,
        54
      ],
      "matrix": [
        1,
        0,
        0,
        0,
        0,
        1,
        0,
        0,
        0,
        0,
        1,
        0,
        -0.22533807,
        3.7838913E-06,
        3.1080306E-06,
        1
      ]
    },
    {
      "name": "RightHandThumb1",
      "children": [
        40
      ],
      "matrix": [
        0.644716,
        -0.20562525,
        0.73624694,
        0,
        0.13546467,
        0.9786308,
        0.1546967,
        0,
        -0.75232345,
        4.72937E-09,
        0.65879387,
        0,
        -0.04063269,
        0.01851184,
        -0.023245363,
        1
      ]
    },
    {
      "name": "RightHandThumb2",
      "children": [
        41
      ],
      "matrix": [
        0.83245313,
        -0.10340719,
        -0.5443609,
        0,
        0.1271537,
        0.9918647,
        0.006031922,
        0,
        0.5393086,
        -0.07423879,
        0.83882946,
        0,
        -0.035140853,
        -1.1992817E-06,
        -1.4741511E-06,
        1
      ]
    },
    {
      "name": "RightHandThumb3",
      "matrix": [
        0.98980975,
        -0.0015940333,
        -0.14238708,
        0,
        0.0015961677,
        0.99999875,
        -9.922939E-05,
        0,
        0.14238706,
        -0.00012905544,
        0.98981106,
        0,
        -0.038449477,
        -7.8144984E-07,
        -1.2266316E-06,
        1
      ]
    },
    {
      "name": "RightHandIndex1",
      "children": [
        43
      ],
      "matrix": [
        0.99247795,
        0,
        0.122423664,
        0,
        0,
        1,
        0,
        0,
        -0.122423664,
        0,
        0.99247795,
        0,
        -0.12764294,
        -0.011492527,
        -0.034972873,
        1
      ]
    },
    {
      "name": "RightHandIndex2",
      "children": [
        44
      ],
      "matrix": [
        0.98774016,
        -0.15610693,
        0,
        0,
        0.15610693,
        0.98774016,
        0,
        0,
        0,
        0,
        1,
        0,
        -0.033057027,
        5.8203685E-08,
        -4.904035E-07,
        1
      ]
    },
    {
      "name": "RightHandIndex3",
      "matrix": [
        0.98549986,
        -0.16967632,
        8.271806E-25,
        0,
        0.16967632,
        0.98549986,
        4.9421562E-08,
        0,
        -8.385668E-09,
        -4.870494E-08,
        1,
        0,
        -0.025179226,
        4.3001223E-06,
        3.5068474E-06,
        1
      ]
    },
    {
      "name": "RightHandMiddle1",
      "children": [
        46
      ],
      "matrix": [
        0.9209486,
        -0.389346,
        0.016225861,
        0,
        0.38670588,
        0.9079799,
        -0.16134144,
        0,
        0.048084885,
        0.15486182,
        0.98676527,
        0,
        -0.12680648,
        -0.012157061,
        -0.007820305,
        1
      ]
    },
    {
      "name": "RightHandMiddle2",
      "children": [
        47
      ],
      "matrix": [
        0.9907807,
        -0.13452004,
        -0.016058955,
        0,
        0.13449997,
        0.9909109,
        -0.0023284554,
        0,
        0.016226217,
        0.00014705978,
        0.99986833,
        0,
        -0.039891064,
        1.39104095E-05,
        -2.1272816E-05,
        1
      ]
    },
    {
      "name": "RightHandMiddle3",
      "matrix": [
        0.95739007,
        -0.2887979,
        0,
        0,
        0.2887979,
        0.95739007,
        0,
        0,
        0,
        0,
        1,
        0,
        -0.025874095,
        -0.00020094878,
        3.0177648E-06,
        1
      ]
    },
    {
      "name": "RightHandRing1",
      "children": [
        49
      ],
      "matrix": [
        0.8337066,
        -0.5507309,
        0.040358502,
        0,
        0.54248995,
        0.80319387,
        -0.24613866,
        0,
        0.103140466,
        0.2271015,
        0.968394,
        0,
        -0.11721881,
        -0.009159173,
        0.016476337,
        1
      ]
    },
    {
      "name": "RightHandRing2",
      "children": [
        50
      ],
      "matrix": [
        0.9833375,
        -0.18178932,
        -2.837911E-07,
        0,
        0.18178932,
        0.9833375,
        1.8310001E-07,
        0,
        2.4577682E-07,
        -2.316393E-07,
        1,
        0,
        -0.04029812,
        -1.5949091E-06,
        -4.5756265E-06,
        1
      ]
    },
    {
      "name": "RightHandRing3",
      "matrix": [
        0.9327146,
        -0.3606155,
        1.2295165E-07,
        0,
        0.3606155,
        0.9327146,
        3.3014038E-07,
        0,
        -2.3373252E-07,
        -2.6358848E-07,
        1,
        0,
        -0.02465148,
        3.3833373E-07,
        2.5481531E-06,
        1
      ]
    },
    {
      "name": "RightHandPinky1",
      "children": [
        52
      ],
      "matrix": [
        0.84496325,
        -0.5348244,
        3.469447E-18,
        0,
        0.532204,
        0.8408234,
        -0.0988682,
        0,
        0.05287712,
        0.08353999,
        0.99510056,
        0,
        -0.109237544,
        0.0005313835,
        0.03523976,
        1
      ]
    },
    {
      "name": "RightHandPinky2",
      "children": [
        53
      ],
      "matrix": [
        0.95016265,
        -0.31175455,
        -2.9384628E-07,
        0,
        0.31175455,
        0.95016265,
        1.797241E-07,
        0,
        2.2317197E-07,
        -2.6237504E-07,
        1,
        0,
        -0.03147673,
        -1.5450685E-06,
        -3.085515E-06,
        1
      ]
    },
    {
      "name": "RightHandPinky3",
      "matrix": [
        0.94689083,
        -0.32155514,
        1.5398965E-07,
        0,
        0.32155514,
        0.94689083,
        3.097417E-07,
        0,
        -2.4541043E-07,
        -2.4377542E-07,
        1,
        0,
        -0.018908704,
        8.33994E-10,
        1.0176517E-06,
        1
      ]
    },
    {
      "name": "a_weapon_right_front",
      "matrix": [
        1,
        0,
        0,
        0,
        0,
        1,
        0,
        0,
        0,
        0,
        1,
        0,
        -0.075292856,
        0.047465622,
        -3.106226E-06,
        1
      ]
    },
    {
      "name": "c_capsule_RightForeArm",
      "matrix": [
        0.04785507,
        0.29676646,
        -0.95375156,
        0,
        0.025799274,
        0.954159,
        0.2981876,
        0,
        0.99852115,
        -0.038875856,
        0.03800512,
        0,
        -0.120040804,
        0.009093586,
        -0.010597733,
        1
      ],
      "mesh": 3
    },
    {
      "name": "c_capsule_RightArm",
      "matrix": [
        0.14374873,
        -0.16271168,
        -0.9761469,
        0,
        0.007209348,
        0.98653686,
        -0.1633819,
        0,
        0.98958844,
        0.016448777,
        0.14298636,
        0,
        -0.08776979,
        0.00508464,
        0.004939595,
        1
      ],
      "mesh": 4
    },
    {
      "name": "aim",
      "matrix": [
        -1,
        1.2246469E-16,
        0,
        0,
        -6.162976E-32,
        -4.440892E-16,
        1,
        0,
        1.2246469E-16,
        1,
        4.440892E-16,
        0,
        3.2197797E-17,
        0,
        0.34325,
        1
      ]
    },
    {
      "name": "c_sphere_Spine2",
      "matrix": [
        -4.5965973E-07,
        0.135867,
        -0.9907273,
        0,
        -1.0000002,
        -5.687294E-07,
        3.8596724E-07,
        0,
        -5.110154E-07,
        0.9907273,
        0.135867,
        0,
        0.002409019,
        0.08134294,
        -0.005853537,
        1
      ]
    },
    {
      "name": "BackPack1",
      "matrix": [
        0.712616,
        -0.7015543,
        3.469447E-18,
        0,
        0.6988955,
        0.7099153,
        -0.08697905,
        0,
        0.061020523,
        0.06198266,
        0.99621016,
        0,
        -3.575977E-17,
        1.4210854E-16,
        -0.29200065,
        1
      ]
    },
    {
      "name": "c_capsule_body",
      "matrix": [
        1.0000002,
        0,
        0,
        0,
        0,
        1.0000002,
        -7.549792E-08,
        0,
        0,
        7.549792E-08,
        1.0000002,
        0,
        -9.772049E-09,
        -0.19772325,
        -0.010784418,
        1
      ],
      "mesh": 5
    },
    {
      "name": "c_sphere_Spine1",
      "matrix": [
        -3.084035E-07,
        -0.11948207,
        -0.9928366,
        0,
        -1.0000002,
        2.592396E-07,
        2.7943076E-07,
        0,
        2.2399554E-07,
        0.9928366,
        -0.11948207,
        0,
        0.0024089243,
        -5.3816562E-05,
        0.019565951,
        1
      ]
    },
    {
      "name": "c_capsule_body_new",
      "mesh": 6
    },
    {
      "name": "c_sphere_Spine",
      "matrix": [
        -1.4157545E-08,
        -0.1544136,
        -0.98800665,
        0,
        -1.0000002,
        -4.46044E-07,
        8.404074E-08,
        0,
        -4.5367136E-07,
        0.98800665,
        -0.1544136,
        0,
        0.000872015,
        -0.035097707,
        0.018031705,
        1
      ]
    },
    {
      "name": "LeftUpLeg",
      "children": [
        65,
        69
      ],
      "matrix": [
        0.99904823,
        0.00024209276,
        0.043618716,
        0,
        0.021809693,
        0.86323965,
        -0.50432295,
        0,
        -0.037775498,
        0.50479424,
        0.86241275,
        0,
        0.106885545,
        -0.022901807,
        0.030826168,
        1
      ]
    },
    {
      "name": "LeftLeg",
      "children": [
        66,
        68
      ],
      "matrix": [
        1,
        0,
        0,
        0,
        0,
        0.49050835,
        0.8714365,
        0,
        0,
        -0.8714365,
        0.49050835,
        0,
        1.0658141E-16,
        -0.46737936,
        -0.057600774,
        1
      ]
    },
    {
      "name": "LeftFoot",
      "children": [
        67
      ],
      "matrix": [
        1,
        0,
        0,
        0,
        0,
        0.93784046,
        -0.3470666,
        0,
        0,
        0.3470666,
        0.93784046,
        0,
        0,
        -0.4283859,
        -0.017561834,
        1
      ]
    },
    {
      "name": "LeftToeBase",
      "matrix": [
        1,
        0,
        0,
        0,
        0,
        1,
        0,
        0,
        0,
        0,
        1,
        0,
        -1.2434498E-16,
        -0.08038142,
        0.1417647,
        1
      ]
    },
    {
      "name": "c_capsule_LeftLeg",
      "matrix": [
        -0.12857458,
        0.014460295,
        -0.99159443,
        0,
        0.99152887,
        0.020455623,
        -0.12826777,
        0,
        0.018428892,
        -0.99968624,
        -0.016967855,
        0,
        0.0074737933,
        -0.24720092,
        -0.015306092,
        1
      ],
      "mesh": 7
    },
    {
      "name": "c_capsule_LeftUpLeg",
      "matrix": [
        -0.129386,
        0.08789554,
        -0.9876906,
        0,
        0.9912865,
        0.036266867,
        -0.1266296,
        0,
        0.024690278,
        -0.99546885,
        -0.091822125,
        0,
        -0.0020896003,
        -0.29399794,
        -0.046598658,
        1
      ],
      "mesh": 8
    },
    {
      "name": "RightUpLeg",
      "children": [
        71,
        75
      ],
      "matrix": [
        0.99904823,
        -0.00024209276,
        -0.043618716,
        0,
        0.02343668,
        -0.8403992,
        0.5414609,
        0,
        -0.036788218,
        -0.5419678,
        -0.83959365,
        0,
        -0.10688599,
        -0.022901917,
        0.030826181,
        1
      ]
    },
    {
      "name": "RightLeg",
      "children": [
        72,
        74
      ],
      "matrix": [
        1,
        0,
        0,
        0,
        0,
        0.45202997,
        0.89200276,
        0,
        0,
        -0.89200276,
        0.45202997,
        0,
        -1.0658141E-16,
        0.46737945,
        0.05760078,
        1
      ]
    },
    {
      "name": "RightFoot",
      "children": [
        73
      ],
      "matrix": [
        1,
        0,
        0,
        0,
        0,
        0.921809,
        -0.3876443,
        0,
        0,
        0.3876443,
        0.921809,
        0,
        3.5527136E-17,
        0.42838567,
        0.017561834,
        1
      ]
    },
    {
      "name": "RightToeBase",
      "matrix": [
        1,
        0,
        0,
        0,
        0,
        1,
        0,
        0,
        0,
        0,
        1,
        0,
        5.3290704E-17,
        0.0803814,
        -0.14176461,
        1
      ]
    },
    {
      "name": "c_capsule_RightLeg",
      "matrix": [
        -0.13290806,
        -0.033035815,
        -0.9905777,
        0,
        -0.9909654,
        -0.013724405,
        0.13341768,
        0,
        -0.018002646,
        0.9993598,
        -0.030913223,
        0,
        -0.005648239,
        0.24836774,
        0.018944778,
        1
      ],
      "mesh": 9
    },
    {
      "name": "c_capsule_RightUpLeg",
      "matrix": [
        -0.13117185,
        0.12107662,
        -0.9839382,
        0,
        -0.99105614,
        -0.04057157,
        0.12712832,
        0,
        -0.024527658,
        0.99181384,
        0.12531559,
        0,
        0.0037976592,
        0.29461235,
        0.054488953,
        1
      ],
      "mesh": 10
    },
    {
      "name": "c_sphere_Hips",
      "matrix": [
        -4.371141E-08,
        1.0000005,
        4.371141E-08,
        0,
        -1.0000005,
        -4.371141E-08,
        3.308724E-24,
        0,
        1.9106863E-15,
        -4.371141E-08,
        1.0000005,
        0,
        0.00087258755,
        -0.027759546,
        0.001535169,
        1
      ]
    },
    {
      "name": "s_body",
      "mesh": 11,
      "skin": 0
    },
    {
      "name": "g_body",
      "mesh": 12,
      "skin": 1
    },
    {
      "name": "g_body_lod1",
      "mesh": 13,
      "skin": 2
    },
    {
      "name": "g_head",
      "mesh": 14,
      "skin": 3
    },
    {
      "name": "g_head_lod1",
      "mesh": 15,
      "skin": 4
    },
    {
      "name": "g_hat_lod1",
      "mesh": 16,
      "skin": 5
    },
    {
      "name": "g_hat_lod2",
      "mesh": 17,
      "skin": 6
    },
    {
      "name": "bounding_box_char",
      "mesh": 18
    },
    {
      "name": "c_capsule_mover_blocker",
      "matrix": [
        -1,
        3.2584137E-07,
        0,
        0,
        -3.2584137E-07,
        -1,
        0,
        0,
        0,
        0,
        1,
        0,
        1.3033652E-08,
        0.04,
        0.65,
        1
      ],
      "mesh": 19
    },
    {
      "name": "g_shades",
      "mesh": 20,
      "skin": 7
    },
    {
      "name": "g_shades_lod1",
      "mesh": 21,
      "skin": 8
    }
  ],
  "scenes": [
    {
      "nodes": [
        0,
        77,
        78,
        79,
        80,
        81,
        82,
        83,
        86,
        87
      ]
    }
  ],
  "skins": [
    {
      "name": "s_body_Skin",
      "inverseBindMatrices": 90,
      "joints": [
        1,
        2,
        3,
        4,
        5,
        6,
        11,
        12,
        13,
        14,
        15,
        16,
        17,
        18,
        19,
        20,
        21,
        22,
        23,
        24,
        25,
        26,
        27,
        28,
        29,
        30,
        34,
        35,
        36,
        37,
        38,
        39,
        40,
        41,
        42,
        43,
        44,
        45,
        46,
        47,
        48,
        49,
        50,
        51,
        52,
        53,
        64,
        65,
        66,
        67,
        70,
        71,
        72,
        73
      ],
      "skeleton": 1
    },
    {
      "name": "g_body_Skin",
      "inverseBindMatrices": 91,
      "joints": [
        1,
        2,
        3,
        4,
        5,
        6,
        11,
        12,
        13,
        14,
        15,
        16,
        17,
        18,
        19,
        20,
        21,
        22,
        23,
        24,
        25,
        26,
        27,
        28,
        29,
        30,
        34,
        35,
        36,
        37,
        38,
        39,
        40,
        41,
        42,
        43,
        44,
        45,
        46,
        47,
        48,
        49,
        50,
        51,
        52,
        53,
        64,
        65,
        66,
        67,
        70,
        71,
        72,
        73
      ],
      "skeleton": 1
    },
    {
      "name": "g_body_lod1_Skin",
      "inverseBindMatrices": 92,
      "joints": [
        1,
        2,
        3,
        4,
        5,
        6,
        11,
        12,
        13,
        14,
        15,
        16,
        17,
        18,
        19,
        20,
        21,
        22,
        23,
        24,
        25,
        26,
        27,
        28,
        29,
        30,
        34,
        35,
        36,
        37,
        38,
        39,
        40,
        41,
        42,
        43,
        44,
        45,
        46,
        47,
        48,
        49,
        50,
        51,
        52,
        53,
        64,
        65,
        66,
        67,
        70,
        71,
        72,
        73
      ],
      "skeleton": 1
    },
    {
      "name": "g_head_Skin",
      "inverseBindMatrices": 93,
      "joints": [
        1,
        2,
        3,
        4,
        5,
        6,
        11,
        12,
        13,
        14,
        15,
        16,
        17,
        18,
        19,
        20,
        21,
        22,
        23,
        24,
        25,
        26,
        27,
        28,
        29,
        30,
        34,
        35,
        36,
        37,
        38,
        39,
        40,
        41,
        42,
        43,
        44,
        45,
        46,
        47,
        48,
        49,
        50,
        51,
        52,
        53,
        64,
        65,
        66,
        67,
        70,
        71,
        72,
        73
      ],
      "skeleton": 1
    },
    {
      "name": "g_head_lod1_Skin",
      "inverseBindMatrices": 94,
      "joints": [
        1,
        2,
        3,
        4,
        5,
        6,
        11,
        12,
        13,
        14,
        15,
        16,
        17,
        18,
        19,
        20,
        21,
        22,
        23,
        24,
        25,
        26,
        27,
        28,
        29,
        30,
        34,
        35,
        36,
        37,
        38,
        39,
        40,
        41,
        42,
        43,
        44,
        45,
        46,
        47,
        48,
        49,
        50,
        51,
        52,
        53,
        64,
        65,
        66,
        67,
        70,
        71,
        72,
        73
      ],
      "skeleton": 1
    },
    {
      "name": "g_hat_lod1_Skin",
      "inverseBindMatrices": 95,
      "joints": [
        6
      ],
      "skeleton": 1
    },
    {
      "name": "g_hat_lod2_Skin",
      "inverseBindMatrices": 96,
      "joints": [
        1,
        2,
        3,
        4,
        5,
        6,
        11,
        12,
        13,
        14,
        15,
        16,
        17,
        18,
        19,
        20,
        21,
        22,
        23,
        24,
        25,
        26,
        27,
        28,
        29,
        30,
        34,
        35,
        36,
        37,
        38,
        39,
        40,
        41,
        42,
        43,
        44,
        45,
        46,
        47,
        48,
        49,
        50,
        51,
        52,
        53,
        64,
        65,
        66,
        67,
        70,
        71,
        72,
        73
      ],
      "skeleton": 1
    },
    {
      "name": "g_shades_Skin",
      "inverseBindMatrices": 97,
      "joints": [
        1,
        6
      ],
      "skeleton": 0
    },
    {
      "name": "g_shades_lod1_Skin",
      "inverseBindMatrices": 98,
      "joints": [
        1,
        6
      ],
      "skeleton": 0
    }
  ]
}